<svg width="132" height="22" viewBox="0 0 132 22" fill="none" xmlns="http://www.w3.org/2000/svg">
<path d="M0.960938 21L2.68359 19.2656H2.92969C4.10156 19.2656 4.91016 19 5.35547 18.4688C5.80078 17.9297 6.21094 16.7305 6.58594 14.8711L8.63672 4.57031C7.02734 4.57031 5.72656 5.00391 4.73438 5.87109C3.74219 6.73047 3.24609 7.85547 3.24609 9.24609V9.50391L0.972656 10.6055C1.16797 8.21484 2.09766 6.46094 3.76172 5.34375C5.42578 4.21875 7.92969 3.65625 11.2734 3.65625C13.6328 3.65625 15.3164 3.91016 16.3242 4.41797C17.3398 4.92578 17.8477 5.76953 17.8477 6.94922C17.8477 9.33203 16.0508 10.9961 12.457 11.9414C15.4727 12.9102 16.9805 14.2383 16.9805 15.9258C16.9805 17.4336 16.1562 18.707 14.5078 19.7461C12.8594 20.7773 10.832 21.293 8.42578 21.293L5.64844 21.1992L0.960938 21ZM9.67969 11.6719H10.2891C11.7344 11.6719 12.9297 11.2461 13.875 10.3945C14.8203 9.53516 15.293 8.44922 15.293 7.13672C15.293 5.29297 14.0039 4.37109 11.4258 4.37109H11.1328L9.67969 11.6719ZM5.32031 19.4766L6.53906 19.7461C7.73438 20.0039 8.99219 20.1328 10.3125 20.1328C13 20.1328 14.3438 18.8789 14.3438 16.3711C14.3438 15.1445 13.9414 14.1797 13.1367 13.4766C12.3398 12.7656 11.25 12.4102 9.86719 12.4102H9.52734L9.26953 13.7227C8.75391 16.2852 7.4375 18.2031 5.32031 19.4766ZM23.3086 21.293C22.2852 21.293 21.4297 20.8945 20.7422 20.0977C20.0625 19.293 19.7227 18.293 19.7227 17.0977C19.7227 14.8477 20.5742 12.7695 22.2773 10.8633C23.9805 8.94922 25.8359 7.99219 27.8438 7.99219C28.9297 7.99219 29.8242 8.38281 30.5273 9.16406C31.2305 9.94531 31.582 10.9414 31.582 12.1523C31.582 14.4883 30.7305 16.5977 29.0273 18.4805C27.3242 20.3555 25.418 21.293 23.3086 21.293ZM24.6445 20.2734C25.8008 20.2734 26.8164 19.5312 27.6914 18.0469C28.5742 16.5547 29.0156 14.8242 29.0156 12.8555C29.0156 10.2695 28.2266 8.97656 26.6484 8.97656C25.5312 8.97656 24.5234 9.74609 23.625 11.2852C22.7344 12.8164 22.2891 14.543 22.2891 16.4648C22.2891 19.0039 23.0742 20.2734 24.6445 20.2734ZM37.3008 21.293C36.2773 21.293 35.4219 20.8945 34.7344 20.0977C34.0547 19.293 33.7148 18.293 33.7148 17.0977C33.7148 14.8477 34.5664 12.7695 36.2695 10.8633C37.9727 8.94922 39.8281 7.99219 41.8359 7.99219C42.9219 7.99219 43.8164 8.38281 44.5195 9.16406C45.2227 9.94531 45.5742 10.9414 45.5742 12.1523C45.5742 14.4883 44.7227 16.5977 43.0195 18.4805C41.3164 20.3555 39.4102 21.293 37.3008 21.293ZM38.6367 20.2734C39.793 20.2734 40.8086 19.5312 41.6836 18.0469C42.5664 16.5547 43.0078 14.8242 43.0078 12.8555C43.0078 10.2695 42.2188 8.97656 40.6406 8.97656C39.5234 8.97656 38.5156 9.74609 37.6172 11.2852C36.7266 12.8164 36.2812 14.543 36.2812 16.4648C36.2812 19.0039 37.0664 20.2734 38.6367 20.2734ZM47.4609 21.1406L48.3281 17.5312L49.9336 9.43359C50.4961 6.60547 51.5547 4.40625 53.1094 2.83594C54.6719 1.25781 56.5703 0.46875 58.8047 0.46875C59.5781 0.46875 60.2812 0.550781 60.9141 0.714844L59.3086 2.39062C58.3945 1.97656 57.6133 1.76953 56.9648 1.76953C55.9258 1.76953 55.0703 2.125 54.3984 2.83594C54.0078 3.25 53.6992 3.76953 53.4727 4.39453C53.2539 5.01953 52.9219 6.3125 52.4766 8.27344L51.3164 13.3945H51.457C52.1914 11.7852 53.1562 10.4844 54.3516 9.49219C55.5547 8.49219 56.7539 7.99219 57.9492 7.99219C59.2695 7.99219 59.9297 8.62891 59.9297 9.90234C59.9297 11.2305 59.3906 12.3438 58.3125 13.2422C57.2344 14.1406 55.6992 14.7539 53.707 15.082C55.9258 18.1602 57.5703 19.6992 58.6406 19.6992C59.3203 19.6992 60.168 19.2266 61.1836 18.2812L61.0195 19.1133C59.4648 20.5664 58.2227 21.293 57.293 21.293C56.543 21.293 55.7852 20.9258 55.0195 20.1914C54.2617 19.4492 52.9492 17.8164 51.082 15.293L49.9453 21L47.4609 21.1406ZM51.2109 14.6367L51.1875 14.7891H51.5859C53.2266 14.7891 54.6445 14.3438 55.8398 13.4531C57.0352 12.5625 57.6328 11.5117 57.6328 10.3008C57.6328 9.53516 57.3281 9.15234 56.7188 9.15234C55.3984 9.15234 53.5625 10.9805 51.2109 14.6367ZM72.4805 21.293L72.5508 18.2344C72.5508 12.1797 72 7.97656 70.8984 5.625C69.7344 3.14844 68.3086 1.91016 66.6211 1.91016C65.0977 1.91016 63.75 2.88281 62.5781 4.82812L61.9805 4.51172C63.7148 1.81641 65.6094 0.46875 67.6641 0.46875C72.5703 0.46875 75.0234 6.09766 75.0234 17.3555L78.7734 11.4844C81.0469 7.92969 82.1836 5.70703 82.1836 4.81641C82.1836 4.51953 81.832 4.37109 81.1289 4.37109H80.1914L80.332 3.65625H85.3711L85.2188 4.37109H84.2461L73.7109 21L72.4805 21.293ZM94.5352 17.8008L94.3594 18.7031C91.875 20.4297 89.7578 21.293 88.0078 21.293C86.8984 21.293 85.9961 20.9062 85.3008 20.1328C84.6133 19.3516 84.2695 18.3438 84.2695 17.1094C84.2695 14.9062 85.1133 12.8359 86.8008 10.8984C88.4883 8.95312 90.2891 7.98047 92.2031 7.98047C92.8984 7.98047 93.4609 8.21484 93.8906 8.68359C94.3203 9.15234 94.5352 9.76172 94.5352 10.5117C94.5352 12.0117 93.7695 13.3008 92.2383 14.3789C90.707 15.457 88.8789 15.9961 86.7539 15.9961L86.7422 16.5234C86.7422 18.8047 87.5781 19.9453 89.25 19.9453C90.6953 19.9453 92.457 19.2305 94.5352 17.8008ZM86.7773 15.2695C88.5273 15.1289 89.8945 14.6797 90.8789 13.9219C91.8633 13.1562 92.3555 12.168 92.3555 10.957C92.3555 9.76172 91.9219 9.16406 91.0547 9.16406C90.1172 9.16406 89.2109 9.78906 88.3359 11.0391C87.4609 12.2812 86.9414 13.6914 86.7773 15.2695ZM98.2266 21.1406L99.0938 17.5312L100.23 11.8008C100.348 11.2227 100.406 10.7227 100.406 10.3008C100.406 9.62891 100.172 9.29297 99.7031 9.29297C98.875 9.29297 97.6914 10.1758 96.1523 11.9414L96.3633 10.8984C98.168 8.95312 99.7344 7.98047 101.062 7.98047C102.188 7.98047 102.75 8.625 102.75 9.91406C102.75 10.4844 102.68 11.1172 102.539 11.8125L101.977 14.6367H102.129C103.059 12.6836 104.156 11.0898 105.422 9.85547C106.695 8.61328 107.859 7.99219 108.914 7.99219C109.461 7.99219 109.949 8.11328 110.379 8.35547L108.82 10.4648C108.359 10.1602 107.969 10.0078 107.648 10.0078C106.125 10.0078 104.098 12.2461 101.566 16.7227L100.711 21L98.2266 21.1406ZM109.254 20.6016L110.789 19.0195C111.805 19.7617 112.84 20.1328 113.895 20.1328C114.543 20.1328 115.09 19.9648 115.535 19.6289C115.98 19.2852 116.203 18.8633 116.203 18.3633C116.203 17.8086 115.762 17.0508 114.879 16.0898L113.812 14.918C112.773 13.7773 112.254 12.8242 112.254 12.0586C112.254 10.9961 112.758 10.0547 113.766 9.23438C114.773 8.40625 115.926 7.99219 117.223 7.99219C117.934 7.99219 118.73 8.14062 119.613 8.4375L119.098 11.0273H118.359L118.395 10.8281C118.41 10.7578 118.418 10.6758 118.418 10.582C118.418 9.52734 117.738 9 116.379 9C114.855 9 114.094 9.60938 114.094 10.8281C114.094 11.4453 114.547 12.2656 115.453 13.2891L116.414 14.3555C117.461 15.5352 117.984 16.5039 117.984 17.2617C117.984 18.3086 117.43 19.2422 116.32 20.0625C115.211 20.8828 113.949 21.293 112.535 21.293C111.543 21.293 110.449 21.0625 109.254 20.6016ZM131.895 17.8008L131.719 18.7031C129.234 20.4297 127.117 21.293 125.367 21.293C124.258 21.293 123.355 20.9062 122.66 20.1328C121.973 19.3516 121.629 18.3438 121.629 17.1094C121.629 14.9062 122.473 12.8359 124.16 10.8984C125.848 8.95312 127.648 7.98047 129.562 7.98047C130.258 7.98047 130.82 8.21484 131.25 8.68359C131.68 9.15234 131.895 9.76172 131.895 10.5117C131.895 12.0117 131.129 13.3008 129.598 14.3789C128.066 15.457 126.238 15.9961 124.113 15.9961L124.102 16.5234C124.102 18.8047 124.938 19.9453 126.609 19.9453C128.055 19.9453 129.816 19.2305 131.895 17.8008ZM124.137 15.2695C125.887 15.1289 127.254 14.6797 128.238 13.9219C129.223 13.1562 129.715 12.168 129.715 10.957C129.715 9.76172 129.281 9.16406 128.414 9.16406C127.477 9.16406 126.57 9.78906 125.695 11.0391C124.82 12.2812 124.301 13.6914 124.137 15.2695Z" fill="white"/>
</svg>
