<svg width="27" height="26" viewBox="0 0 27 26" fill="none" xmlns="http://www.w3.org/2000/svg">
<path d="M14.8273 0.5C16.2804 0.50375 17.0179 0.51125 17.6547 0.52875L17.9053 0.5375C18.1946 0.5475 18.4801 0.56 18.825 0.575C20.1993 0.6375 21.1371 0.8475 21.9598 1.15625C22.8123 1.47375 23.5305 1.90375 24.2487 2.5975C24.9057 3.22217 25.414 3.97809 25.738 4.8125C26.057 5.60875 26.274 6.51625 26.3386 7.8475C26.3541 8.18 26.367 8.45625 26.3773 8.7375L26.3851 8.98C26.4045 9.595 26.4122 10.3088 26.4148 11.715L26.4161 12.6475V14.285C26.4192 15.1968 26.4093 16.1085 26.3864 17.02L26.3786 17.2625C26.3683 17.5437 26.3554 17.82 26.3399 18.1525C26.2753 19.4837 26.0557 20.39 25.738 21.1875C25.414 22.0219 24.9057 22.7778 24.2487 23.4025C23.6032 24.0384 22.8221 24.5302 21.9598 24.8438C21.1371 25.1525 20.1993 25.3625 18.825 25.425L17.9053 25.4625L17.6547 25.47C17.0179 25.4875 16.2804 25.4963 14.8273 25.4988L13.8637 25.5H12.1729C11.2303 25.5032 10.2877 25.4936 9.34543 25.4712L9.09485 25.4638C8.78822 25.4525 8.48166 25.4396 8.17518 25.425C6.80085 25.3625 5.8631 25.1525 5.03902 24.8438C4.17725 24.5301 3.39659 24.0382 2.75147 23.4025C2.09395 22.778 1.58524 22.022 1.26089 21.1875C0.941849 20.3912 0.724849 19.4837 0.660266 18.1525L0.621516 17.2625L0.615058 17.02C0.591247 16.1085 0.580482 15.1968 0.582766 14.285V11.715C0.579191 10.8033 0.588664 9.8915 0.611183 8.98L0.620224 8.7375C0.630558 8.45625 0.643474 8.18 0.658974 7.8475C0.723558 6.51625 0.940558 5.61 1.2596 4.8125C1.5847 3.97775 2.0943 3.2218 2.75277 2.5975C3.39751 1.96194 4.17772 1.47009 5.03902 1.15625C5.8631 0.8475 6.79956 0.6375 8.17518 0.575C8.51877 0.56 8.80552 0.5475 9.09485 0.5375L9.34543 0.53C10.2873 0.507791 11.2295 0.498207 12.1716 0.50125L14.8273 0.5ZM13.4994 6.75C11.7866 6.75 10.1439 7.40848 8.9327 8.58058C7.72153 9.75268 7.0411 11.3424 7.0411 13C7.0411 14.6576 7.72153 16.2473 8.9327 17.4194C10.1439 18.5915 11.7866 19.25 13.4994 19.25C15.2123 19.25 16.855 18.5915 18.0662 17.4194C19.2773 16.2473 19.9578 14.6576 19.9578 13C19.9578 11.3424 19.2773 9.75268 18.0662 8.58058C16.855 7.40848 15.2123 6.75 13.4994 6.75ZM13.4994 9.25C14.0083 9.24992 14.5122 9.34683 14.9824 9.53521C15.4525 9.72359 15.8798 9.99975 16.2397 10.3479C16.5995 10.6961 16.885 11.1094 17.0799 11.5644C17.2747 12.0193 17.375 12.5069 17.3751 12.9994C17.3752 13.4918 17.275 13.9795 17.0804 14.4345C16.8857 14.8895 16.6003 15.3029 16.2406 15.6512C15.8808 15.9995 15.4537 16.2758 14.9836 16.4643C14.5135 16.6528 14.0096 16.7499 13.5007 16.75C12.473 16.75 11.4874 16.3549 10.7607 15.6517C10.034 14.9484 9.62572 13.9946 9.62572 13C9.62572 12.0054 10.034 11.0516 10.7607 10.3483C11.4874 9.64509 12.473 9.25 13.5007 9.25M20.282 4.875C19.8538 4.875 19.4431 5.03962 19.1403 5.33265C18.8375 5.62567 18.6674 6.0231 18.6674 6.4375C18.6674 6.8519 18.8375 7.24933 19.1403 7.54235C19.4431 7.83538 19.8538 8 20.282 8C20.7102 8 21.1209 7.83538 21.4237 7.54235C21.7264 7.24933 21.8966 6.8519 21.8966 6.4375C21.8966 6.0231 21.7264 5.62567 21.4237 5.33265C21.1209 5.03962 20.7102 4.875 20.282 4.875Z" fill="black"/>
</svg>
