<svg width="26" height="25" viewBox="0 0 26 25" fill="none" xmlns="http://www.w3.org/2000/svg">
<path d="M2.93208 1.23C3.16594 1.2037 3.40278 1.23975 3.617 1.33427C3.83123 1.42878 4.01468 1.57816 4.14754 1.76625C6.05404 4.465 8.34287 5.5875 10.8836 5.8425C11.0076 4.79125 11.3008 3.7525 11.8523 2.8375C12.6609 1.495 13.9758 0.507502 15.8539 0.142502C18.4502 -0.362498 20.4264 0.547502 21.5721 1.66125L23.8868 1.2425C24.129 1.19858 24.3791 1.22263 24.6077 1.31181C24.8362 1.40099 25.0337 1.55158 25.1767 1.74581C25.3196 1.94004 25.4022 2.1698 25.4147 2.40798C25.4271 2.64615 25.3689 2.8828 25.2469 3.09L23.0252 6.8675C23.228 12.3188 21.6625 16.1238 18.3249 18.745C16.5553 20.135 14.021 20.9238 11.2401 21.1675C8.43716 21.4125 5.26871 21.1163 2.11962 20.2263C1.85056 20.1503 1.61432 19.9917 1.44657 19.7744C1.27881 19.5571 1.18864 19.2929 1.18966 19.0217C1.19068 18.7505 1.28284 18.4869 1.45223 18.2708C1.62161 18.0547 1.85904 17.8978 2.12866 17.8238C3.71225 17.3875 4.91866 17.0113 6.00754 16.3525C4.45883 15.5575 3.31829 14.5175 2.511 13.3325C1.38983 11.685 0.973914 9.8475 0.891248 8.19125C0.808581 6.535 1.05529 5 1.31621 3.89375C1.46475 3.2625 1.63783 2.63 1.87679 2.025C1.96108 1.81174 2.10412 1.62489 2.29038 1.48474C2.47665 1.34459 2.69773 1.25649 2.93208 1.23Z" fill="black"/>
</svg>
